<?xml version="1.0" encoding="UTF-8" standalone="no"?>
<svg xmlns="http://www.w3.org/2000/svg" version="1.2" baseProfile="tiny" viewBox="0.00 0.00 1586.00 1983.00">
<path fill="#000000" d="
  M 589.35 1225.99
  L 586.06 1226.01
  L 582.63 1225.73
  L 579.12 1225.16
  L 575.60 1224.29
  L 572.31 1223.20
  L 569.14 1221.86
  L 566.27 1220.33
  L 563.61 1218.57
  L 557.48 1214.41
  L 554.87 1212.99
  L 552.34 1211.88
  L 548.94 1210.77
  L 545.10 1209.95
  L 537.01 1208.41
  L 530.39 1206.66
  L 524.62 1204.52
  L 519.59 1201.94
  L 518.75 1201.32
  L 516.32 1199.08
  L 516.25 1199.02
  L 515.75 1198.94
  L 515.36 1199.26
  L 515.34 1199.29
  L 514.84 1200.24
  L 514.22 1201.05
  L 509.19 1206.43
  L 503.89 1211.42
  L 498.34 1216.03
  L 492.52 1220.25
  L 492.52 1220.25
  L 492.52 1220.25
  L 487.44 1223.49
  L 482.17 1226.45
  L 476.72 1229.15
  L 471.09 1231.57
  L 454.09 1238.14
  L 440.20 1242.96
  L 427.35 1246.77
  L 415.35 1249.59
  L 412.63 1249.98
  L 409.63 1250.10
  L 406.54 1249.94
  L 403.75 1249.53
  L 399.77 1249.11
  L 394.53 1249.21
  L 392.11 1249.19
  L 389.49 1248.85
  L 386.78 1248.21
  L 384.08 1247.29
  L 381.70 1246.21
  L 379.52 1244.91
  L 377.72 1243.52
  L 376.24 1241.96
  L 375.19 1240.41
  L 375.19 1240.41
  L 374.25 1238.31
  L 373.69 1236.00
  L 373.50 1233.48
  L 373.69 1230.74
  L 373.64 1229.21
  L 373.09 1227.79
  L 371.84 1225.10
  L 371.45 1222.75
  L 371.67 1221.27
  L 372.22 1219.79
  L 373.10 1218.29
  L 374.36 1216.70
  L 375.93 1215.13
  L 377.79 1213.63
  L 379.74 1212.37
  L 381.53 1211.49
  L 393.73 1206.48
  L 416.12 1195.70
  L 433.82 1186.57
  L 449.43 1177.73
  L 456.73 1173.26
  L 463.80 1168.69
  L 465.68 1167.44
  L 472.85 1162.07
  L 482.52 1153.91
  L 482.80 1153.44
  L 482.76 1152.90
  L 480.92 1149.88
  L 479.76 1147.85
  L 478.96 1145.80
  L 478.54 1143.93
  L 478.36 1142.06
  L 478.42 1140.05
  L 478.70 1138.05
  L 479.96 1133.71
  L 482.24 1128.72
  L 490.28 1112.61
  L 490.32 1112.48
  L 490.20 1111.96
  L 489.71 1111.73
  L 488.07 1111.59
  L 486.34 1111.13
  L 485.49 1110.53
  L 484.58 1109.09
  L 484.20 1107.62
  L 484.27 1106.42
  L 484.69 1105.19
  L 488.51 1097.70
  L 492.44 1091.15
  L 496.50 1085.55
  L 500.67 1080.90
  L 519.00 1062.74
  L 521.03 1060.45
  L 523.88 1057.27
  L 526.15 1055.25
  L 529.30 1052.70
  L 532.00 1050.10
  L 535.32 1046.11
  L 538.40 1041.39
  L 544.45 1030.66
  L 548.82 1022.06
  L 556.33 1006.49
  L 564.71 989.96
  L 572.36 977.58
  L 573.28 976.30
  L 574.27 975.32
  L 575.31 974.63
  L 576.42 974.24
  L 576.42 974.24
  L 576.42 974.24
  L 577.43 974.13
  L 578.47 974.25
  L 580.71 975.12
  L 581.62 975.82
  L 582.61 976.96
  L 584.85 980.52
  L 592.16 994.23
  L 597.13 1004.20
  L 598.69 1007.70
  L 601.51 1015.13
  L 603.79 1022.88
  L 605.60 1031.15
  L 606.95 1040.05
  L 607.44 1041.07
  L 608.46 1041.57
  L 633.40 1044.80
  L 634.14 1044.79
  L 634.84 1044.57
  L 635.29 1044.34
  L 636.87 1043.23
  L 638.30 1042.18
  L 638.55 1042.01
  L 655.56 1030.89
  L 670.13 1021.01
  L 682.27 1012.36
  L 691.97 1004.95
  L 707.59 992.23
  L 722.44 979.76
  L 736.49 967.51
  L 749.77 955.51
  L 771.37 935.70
  L 785.25 923.26
  L 794.20 915.61
  L 803.67 907.87
  L 813.64 900.05
  L 824.12 892.13
  L 836.22 883.54
  L 848.57 875.53
  L 861.16 868.10
  L 874.01 861.25
  L 877.57 859.53
  L 882.21 857.51
  L 887.14 855.62
  L 900.74 851.14
  L 902.52 850.58
  L 910.79 848.18
  L 917.07 846.81
  L 931.39 844.80
  L 937.35 844.26
  L 942.92 844.00
  L 948.18 844.01
  L 953.17 844.30
  L 957.88 844.88
  L 962.32 845.73
  L 970.52 847.76
  L 979.24 850.21
  L 988.48 853.06
  L 998.24 856.33
  L 1004.11 858.59
  L 1010.07 861.32
  L 1016.49 864.68
  L 1025.35 869.70
  L 1026.05 870.10
  L 1026.77 870.19
  L 1027.33 869.74
  L 1027.34 869.72
  L 1029.16 866.65
  L 1031.43 863.68
  L 1035.68 858.97
  L 1040.71 853.90
  L 1046.64 848.30
  L 1054.70 841.04
  L 1059.88 836.39
  L 1062.79 833.23
  L 1065.36 829.34
  L 1067.68 824.66
  L 1070.02 818.64
  L 1071.95 812.40
  L 1073.37 806.09
  L 1074.27 799.89
  L 1074.62 793.85
  L 1074.43 788.03
  L 1073.68 782.53
  L 1072.41 777.41
  L 1070.62 772.71
  L 1069.51 770.60
  L 1067.95 768.13
  L 1063.48 762.16
  L 1053.79 750.24
  L 1046.40 741.83
  L 1042.90 737.61
  L 1038.24 730.92
  L 1034.15 724.24
  L 1030.66 717.64
  L 1027.74 711.03
  L 1025.37 704.41
  L 1023.58 697.80
  L 1022.32 691.08
  L 1021.64 684.39
  L 1021.50 680.75
  L 1021.72 676.01
  L 1022.52 670.98
  L 1023.90 665.68
  L 1025.85 660.09
  L 1030.97 647.29
  L 1034.69 638.71
  L 1037.78 632.76
  L 1041.28 627.25
  L 1045.21 622.17
  L 1049.57 617.52
  L 1049.57 617.52
  L 1053.63 613.89
  L 1058.00 610.58
  L 1062.67 607.59
  L 1067.66 604.92
  L 1072.88 602.62
  L 1078.10 600.83
  L 1083.20 599.59
  L 1088.15 598.88
  L 1092.98 598.71
  L 1097.58 599.09
  L 1102.07 600.02
  L 1106.28 601.49
  L 1107.81 602.18
  L 1110.10 603.41
  L 1112.21 604.81
  L 1114.14 606.38
  L 1115.88 608.12
  L 1117.88 610.66
  L 1119.56 613.48
  L 1120.92 616.45
  L 1122.12 619.76
  L 1123.10 623.26
  L 1123.90 627.05
  L 1124.53 631.18
  L 1124.98 635.60
  L 1125.41 645.85
  L 1125.64 656.19
  L 1126.07 666.65
  L 1126.72 677.22
  L 1127.58 687.92
  L 1128.59 696.32
  L 1130.08 704.50
  L 1132.06 712.49
  L 1134.54 720.26
  L 1135.94 723.64
  L 1137.84 727.32
  L 1140.25 731.36
  L 1143.81 736.84
  L 1147.38 742.36
  L 1149.25 745.69
  L 1150.93 749.32
  L 1152.29 753.03
  L 1153.39 756.93
  L 1154.19 760.89
  L 1154.72 765.11
  L 1154.95 769.36
  L 1154.91 773.72
  L 1154.57 778.29
  L 1153.96 782.98
  L 1153.04 787.85
  L 1151.86 792.75
  L 1150.39 797.78
  L 1148.64 802.91
  L 1146.63 808.10
  L 1144.32 813.43
  L 1141.76 818.78
  L 1137.70 826.20
  L 1133.05 833.40
  L 1127.80 840.40
  L 1121.95 847.19
  L 1121.06 848.15
  L 1112.77 857.08
  L 1106.88 863.06
  L 1101.42 868.11
  L 1095.96 872.59
  L 1089.50 877.22
  L 1076.66 885.63
  L 1067.55 891.29
  L 1061.98 894.39
  L 1057.32 896.58
  L 1057.05 896.87
  L 1057.08 897.26
  L 1057.11 897.31
  L 1062.61 905.24
  L 1066.95 912.19
  L 1075.15 924.90
  L 1078.65 930.56
  L 1081.75 936.36
  L 1084.45 942.29
  L 1086.77 948.36
  L 1086.77 948.36
  L 1086.77 948.36
  L 1089.20 956.49
  L 1090.96 964.86
  L 1092.04 973.45
  L 1092.46 982.28
  L 1092.34 992.82
  L 1091.79 1003.15
  L 1090.81 1013.27
  L 1089.40 1023.18
  L 1087.81 1030.41
  L 1085.35 1038.03
  L 1081.93 1046.45
  L 1076.93 1057.16
  L 1074.06 1062.71
  L 1070.93 1068.07
  L 1067.54 1073.22
  L 1063.90 1078.17
  L 1059.37 1083.62
  L 1053.85 1089.52
  L 1047.73 1095.40
  L 1040.65 1101.64
  L 1030.42 1110.15
  L 1024.45 1115.08
  L 1011.90 1125.87
  L 995.33 1140.88
  L 984.24 1150.99
  L 978.31 1155.84
  L 968.85 1162.85
  L 960.38 1168.60
  L 952.43 1173.22
  L 944.22 1177.45
  L 936.81 1181.04
  L 930.17 1183.98
  L 924.33 1186.28
  L 921.60 1187.27
  L 912.09 1190.89
  L 908.73 1192.43
  L 905.64 1194.09
  L 902.66 1195.95
  L 899.75 1198.04
  L 893.61 1202.56
  L 890.20 1204.66
  L 886.52 1206.07
  L 882.89 1207.06
  L 879.22 1207.66
  L 875.78 1207.81
  L 872.51 1207.53
  L 869.56 1206.84
  L 866.86 1205.73
  L 864.38 1204.16
  L 862.22 1202.16
  L 860.34 1199.68
  L 859.54 1198.93
  L 857.70 1198.28
  L 855.84 1197.63
  L 853.05 1195.80
  L 853.05 1195.80
  L 850.71 1193.41
  L 848.84 1190.46
  L 848.52 1190.21
  L 848.11 1190.28
  L 848.06 1190.33
  L 844.77 1193.37
  L 841.23 1196.22
  L 837.43 1198.90
  L 833.39 1201.40
  L 811.01 1214.13
  L 793.36 1223.64
  L 777.23 1231.65
  L 762.14 1238.39
  L 759.20 1239.59
  L 750.55 1242.77
  L 739.10 1246.45
  L 729.32 1249.69
  L 720.48 1253.03
  L 712.57 1256.49
  L 705.59 1260.06
  L 699.45 1263.63
  L 692.74 1267.79
  L 677.63 1277.94
  L 669.52 1283.20
  L 660.96 1287.96
  L 651.84 1292.29
  L 642.22 1296.15
  L 632.01 1299.58
  L 621.24 1302.56
  L 609.76 1305.15
  L 597.60 1307.34
  L 568.26 1311.78
  L 555.59 1313.89
  L 550.77 1314.94
  L 546.98 1315.97
  L 528.91 1321.61
  L 525.32 1322.56
  L 521.62 1323.21
  L 518.21 1323.49
  L 515.07 1323.41
  L 512.35 1322.97
  L 510.06 1322.20
  L 508.09 1321.03
  L 506.62 1319.58
  L 506.42 1319.30
  L 506.17 1318.99
  L 506.17 1318.99
  L 505.03 1318.21
  L 503.46 1317.84
  L 500.58 1317.39
  L 498.16 1316.58
  L 496.20 1315.43
  L 494.70 1313.93
  L 494.70 1313.93
  L 494.70 1313.93
  L 493.95 1312.74
  L 493.41 1311.40
  L 493.07 1309.90
  L 492.93 1308.24
  L 492.75 1305.35
  L 492.32 1304.26
  L 490.86 1301.56
  L 489.91 1298.94
  L 489.48 1296.38
  L 489.56 1293.90
  L 489.62 1293.51
  L 489.95 1291.91
  L 491.07 1288.27
  L 492.74 1284.71
  L 494.97 1281.22
  L 497.73 1277.84
  L 501.05 1274.55
  L 504.91 1271.31
  L 509.40 1268.07
  L 514.94 1264.50
  L 519.66 1261.81
  L 525.37 1258.95
  L 530.86 1256.35
  L 553.52 1245.47
  L 569.70 1237.01
  L 571.64 1235.94
  L 581.26 1230.68
  L 589.46 1226.41
  L 589.58 1226.22
  L 589.47 1226.02
  L 589.35 1225.99
  Z
  M 1053.13 891.38
  L 1056.82 888.61
  L 1060.43 886.20
  L 1075.87 876.49
  L 1085.18 870.43
  L 1088.88 867.81
  L 1094.46 863.38
  L 1099.99 858.39
  L 1105.86 852.54
  L 1113.90 843.97
  L 1116.22 841.47
  L 1121.29 835.64
  L 1125.89 829.58
  L 1130.02 823.27
  L 1133.69 816.72
  L 1133.69 816.72
  L 1134.96 814.19
  L 1139.30 804.47
  L 1142.63 795.37
  L 1145.01 786.74
  L 1145.85 782.53
  L 1146.44 778.52
  L 1146.79 774.66
  L 1146.91 770.81
  L 1146.78 767.14
  L 1146.41 763.51
  L 1145.81 760.09
  L 1144.96 756.72
  L 1143.88 753.50
  L 1142.54 750.34
  L 1141.14 747.63
  L 1139.52 744.96
  L 1132.32 733.87
  L 1129.92 729.64
  L 1127.75 725.03
  L 1125.81 720.02
  L 1124.12 714.68
  L 1122.66 708.93
  L 1121.44 702.81
  L 1120.43 696.18
  L 1119.62 689.07
  L 1118.75 678.51
  L 1118.08 667.09
  L 1117.61 654.82
  L 1117.34 641.68
  L 1117.12 636.24
  L 1116.61 631.25
  L 1115.81 626.66
  L 1114.71 622.49
  L 1113.37 618.90
  L 1111.75 615.79
  L 1109.84 613.14
  L 1107.69 611.06
  L 1106.34 610.06
  L 1104.23 608.77
  L 1102.02 607.72
  L 1099.63 606.87
  L 1097.16 606.28
  L 1094.63 605.93
  L 1092.06 605.81
  L 1089.37 605.94
  L 1086.69 606.31
  L 1081.04 607.59
  L 1075.66 609.32
  L 1070.55 611.49
  L 1065.71 614.11
  L 1065.71 614.11
  L 1061.57 616.86
  L 1057.65 619.98
  L 1053.94 623.46
  L 1050.46 627.30
  L 1047.73 630.88
  L 1045.10 634.99
  L 1042.58 639.62
  L 1040.17 644.78
  L 1036.13 654.41
  L 1032.51 663.70
  L 1031.08 667.81
  L 1030.01 671.49
  L 1029.30 674.74
  L 1028.95 677.57
  L 1028.82 682.83
  L 1029.13 688.05
  L 1029.88 693.35
  L 1031.05 698.57
  L 1032.67 703.88
  L 1034.69 709.08
  L 1037.14 714.27
  L 1039.96 719.30
  L 1045.05 727.36
  L 1049.01 732.79
  L 1060.73 746.27
  L 1070.49 758.41
  L 1074.97 764.45
  L 1076.54 766.94
  L 1077.66 769.08
  L 1079.36 773.30
  L 1080.74 777.87
  L 1081.72 782.55
  L 1082.35 787.51
  L 1082.60 792.58
  L 1082.47 797.85
  L 1081.96 803.14
  L 1081.10 808.33
  L 1079.50 815.23
  L 1077.62 821.51
  L 1075.46 827.17
  L 1073.01 832.21
  L 1071.29 835.15
  L 1069.55 837.72
  L 1067.77 839.96
  L 1066.01 841.76
  L 1049.39 856.89
  L 1044.05 861.90
  L 1040.08 865.99
  L 1036.78 869.87
  L 1034.03 873.73
  L 1033.86 874.58
  L 1034.33 875.31
  L 1038.90 878.75
  L 1043.41 882.57
  L 1047.86 886.75
  L 1052.26 891.31
  L 1052.68 891.52
  L 1053.13 891.38
  Z
  M 646.97 1046.15
  L 653.34 1046.80
  L 658.07 1047.00
  L 662.07 1046.77
  L 665.40 1046.10
  L 667.54 1045.29
  L 669.84 1044.10
  L 672.27 1042.54
  L 674.86 1040.59
  L 679.71 1036.53
  L 685.95 1030.94
  L 694.73 1023.18
  L 704.53 1014.57
  L 713.53 1005.79
  L 715.47 1004.01
  L 717.79 1002.23
  L 720.00 1000.83
  L 722.13 999.76
  L 724.05 999.10
  L 725.72 998.83
  L 727.21 998.93
  L 728.57 999.43
  L 729.60 1000.24
  L 730.47 1001.45
  L 731.40 1003.56
  L 732.11 1006.05
  L 732.62 1009.05
  L 733.06 1013.19
  L 733.17 1014.37
  L 733.59 1021.54
  L 733.64 1031.08
  L 733.62 1036.06
  L 734.04 1048.43
  L 734.29 1055.65
  L 734.30 1062.77
  L 734.07 1069.78
  L 733.60 1076.69
  L 733.29 1082.26
  L 733.18 1090.03
  L 733.09 1097.32
  L 732.83 1102.62
  L 732.35 1107.41
  L 731.59 1111.82
  L 730.38 1116.69
  L 728.56 1124.22
  L 727.75 1129.61
  L 727.57 1133.78
  L 727.82 1136.45
  L 728.18 1137.89
  L 729.47 1143.90
  L 729.71 1146.20
  L 729.73 1148.39
  L 729.57 1150.25
  L 727.07 1169.52
  L 725.94 1175.60
  L 724.27 1180.86
  L 723.29 1183.03
  L 722.15 1185.02
  L 720.93 1186.69
  L 719.55 1188.14
  L 718.24 1189.17
  L 716.02 1190.33
  L 713.12 1191.26
  L 711.19 1191.83
  L 708.93 1193.01
  L 706.85 1194.91
  L 704.87 1197.57
  L 702.34 1201.87
  L 701.27 1203.76
  L 698.94 1206.99
  L 695.44 1210.61
  L 694.09 1211.72
  L 692.70 1212.57
  L 691.28 1213.15
  L 689.82 1213.47
  L 687.65 1213.45
  L 685.41 1212.88
  L 684.67 1212.73
  L 683.92 1212.80
  L 683.23 1213.10
  L 682.66 1213.60
  L 681.72 1214.72
  L 678.60 1218.32
  L 676.26 1220.61
  L 673.91 1222.38
  L 671.45 1223.69
  L 669.29 1224.42
  L 666.88 1224.88
  L 650.41 1226.57
  L 646.69 1227.11
  L 642.57 1228.10
  L 637.23 1229.24
  L 632.02 1229.60
  L 625.25 1229.32
  L 621.37 1229.21
  L 615.75 1229.33
  L 611.96 1229.33
  L 608.25 1229.07
  L 604.63 1228.54
  L 601.08 1227.74
  L 600.36 1227.74
  L 599.72 1228.09
  L 596.31 1230.96
  L 593.99 1232.58
  L 591.54 1234.03
  L 581.92 1239.35
  L 568.41 1246.79
  L 558.98 1251.68
  L 532.05 1264.64
  L 523.33 1269.00
  L 516.36 1273.08
  L 510.29 1277.37
  L 504.86 1282.09
  L 504.24 1282.69
  L 502.46 1284.62
  L 500.93 1286.66
  L 499.66 1288.79
  L 498.63 1291.02
  L 497.85 1293.38
  L 497.33 1295.85
  L 497.53 1296.53
  L 498.18 1296.79
  L 498.36 1296.76
  L 499.88 1296.47
  L 500.98 1296.62
  L 501.54 1297.01
  L 501.94 1297.61
  L 502.14 1298.36
  L 502.11 1299.18
  L 500.76 1306.49
  L 500.69 1307.69
  L 500.99 1308.59
  L 501.51 1309.16
  L 502.24 1309.57
  L 504.55 1310.06
  L 505.33 1309.78
  L 506.67 1308.45
  L 506.82 1308.32
  L 507.30 1308.11
  L 507.83 1308.13
  L 508.30 1308.36
  L 508.63 1308.77
  L 510.10 1311.52
  L 511.45 1313.39
  L 512.87 1314.65
  L 514.37 1315.32
  L 515.28 1315.46
  L 518.13 1315.50
  L 521.02 1315.25
  L 523.97 1314.73
  L 526.97 1313.93
  L 532.95 1312.05
  L 547.24 1307.75
  L 552.68 1306.45
  L 557.88 1305.46
  L 582.49 1301.68
  L 595.76 1299.69
  L 607.74 1297.47
  L 618.81 1294.96
  L 629.21 1292.10
  L 638.93 1288.88
  L 648.11 1285.26
  L 656.70 1281.25
  L 664.81 1276.80
  L 682.16 1265.19
  L 687.89 1261.40
  L 693.77 1257.76
  L 699.79 1254.28
  L 705.95 1250.94
  L 712.63 1247.73
  L 720.13 1244.63
  L 728.72 1241.52
  L 739.08 1238.17
  L 751.43 1233.98
  L 763.85 1229.01
  L 776.74 1223.12
  L 790.76 1215.99
  L 816.95 1201.70
  L 827.78 1195.46
  L 837.08 1189.84
  L 841.22 1187.69
  L 846.43 1185.74
  L 846.89 1185.38
  L 847.00 1184.82
  L 846.76 1183.14
  L 846.41 1178.06
  L 846.61 1172.86
  L 847.38 1167.51
  L 848.73 1162.03
  L 850.64 1156.38
  L 853.14 1150.51
  L 856.25 1144.32
  L 860.17 1137.41
  L 862.46 1133.82
  L 865.60 1129.34
  L 874.42 1117.69
  L 879.42 1111.71
  L 884.35 1106.64
  L 889.21 1102.50
  L 893.99 1099.27
  L 895.32 1098.65
  L 896.53 1098.38
  L 897.23 1098.67
  L 897.43 1099.40
  L 897.36 1099.61
  L 895.26 1103.38
  L 892.45 1107.63
  L 888.95 1112.33
  L 884.64 1117.65
  L 878.93 1124.78
  L 872.42 1133.44
  L 867.84 1140.18
  L 863.80 1147.12
  L 860.30 1154.25
  L 857.34 1161.57
  L 856.56 1163.81
  L 855.72 1166.61
  L 855.09 1169.45
  L 855.09 1169.45
  L 855.09 1169.45
  L 854.63 1172.58
  L 854.42 1175.75
  L 854.45 1178.97
  L 854.73 1182.24
  L 855.19 1184.65
  L 855.93 1186.67
  L 856.95 1188.30
  L 858.26 1189.54
  L 858.26 1189.54
  L 858.26 1189.54
  L 858.26 1189.54
  L 858.26 1189.54
  L 859.31 1190.16
  L 860.51 1190.59
  L 863.29 1190.91
  L 865.38 1190.98
  L 867.12 1191.26
  L 868.59 1191.79
  L 869.88 1192.61
  L 870.10 1192.80
  L 870.53 1193.38
  L 870.70 1194.08
  L 870.58 1194.79
  L 870.20 1195.40
  L 870.20 1195.40
  L 870.17 1195.43
  L 868.75 1196.85
  L 868.67 1196.94
  L 868.56 1197.56
  L 868.96 1198.06
  L 871.21 1198.98
  L 873.51 1199.58
  L 873.51 1199.58
  L 873.51 1199.58
  L 875.58 1199.83
  L 877.69 1199.83
  L 879.85 1199.59
  L 882.05 1199.09
  L 886.21 1197.70
  L 888.96 1196.21
  L 897.54 1189.79
  L 902.49 1186.71
  L 905.93 1184.92
  L 909.69 1183.24
  L 920.54 1179.16
  L 922.45 1178.47
  L 926.57 1176.84
  L 931.89 1174.48
  L 946.07 1167.57
  L 950.90 1164.98
  L 955.88 1162.02
  L 960.87 1158.76
  L 966.01 1155.12
  L 971.26 1151.13
  L 976.66 1146.77
  L 988.17 1136.67
  L 1005.98 1120.51
  L 1016.25 1111.57
  L 1030.88 1099.43
  L 1035.81 1095.37
  L 1040.24 1091.54
  L 1044.70 1087.36
  L 1049.26 1082.75
  L 1054.19 1077.44
  L 1058.98 1071.61
  L 1063.59 1064.88
  L 1068.02 1057.25
  L 1072.27 1048.73
  L 1076.49 1039.03
  L 1079.57 1030.50
  L 1081.77 1022.41
  L 1083.17 1014.44
  L 1083.73 1008.03
  L 1084.62 986.48
  L 1084.61 980.56
  L 1084.27 974.70
  L 1083.59 968.92
  L 1082.58 963.20
  L 1082.58 963.20
  L 1082.58 963.20
  L 1081.02 956.77
  L 1079.03 950.42
  L 1076.60 944.16
  L 1073.74 937.99
  L 1070.31 932.03
  L 1064.52 923.16
  L 1061.65 918.68
  L 1058.75 913.69
  L 1055.82 908.22
  L 1052.86 902.24
  L 1050.79 898.58
  L 1048.08 894.89
  L 1044.69 891.07
  L 1039.63 886.01
  L 1039.58 885.96
  L 1035.60 882.48
  L 1030.70 878.90
  L 1020.47 872.39
  L 1015.63 869.65
  L 1010.88 867.19
  L 1006.13 864.98
  L 1001.45 863.04
  L 996.66 861.31
  L 991.93 859.84
  L 982.38 857.20
  L 974.52 855.25
  L 967.46 853.76
  L 960.84 852.65
  L 954.46 851.91
  L 948.30 851.55
  L 942.40 851.56
  L 936.65 851.95
  L 924.01 853.38
  L 918.03 854.32
  L 909.84 856.28
  L 898.28 859.88
  L 895.03 860.93
  L 889.18 863.00
  L 883.19 865.48
  L 877.01 868.39
  L 870.35 871.85
  L 860.48 877.44
  L 850.66 883.45
  L 840.74 889.96
  L 830.74 896.98
  L 820.51 904.60
  L 809.97 912.88
  L 798.87 922.00
  L 786.80 932.31
  L 782.21 936.28
  L 770.27 946.66
  L 762.13 953.98
  L 747.38 967.37
  L 732.27 980.64
  L 716.79 993.78
  L 700.94 1006.80
  L 690.96 1014.55
  L 681.03 1021.87
  L 672.33 1028.30
  L 665.42 1033.09
  L 646.86 1045.73
  L 646.79 1045.80
  L 646.79 1046.02
  L 646.97 1046.15
  Z
  M 723.78 1008.01
  L 721.59 1009.29
  L 719.53 1011.04
  L 710.57 1019.74
  L 702.63 1027.06
  L 693.26 1035.14
  L 688.02 1039.70
  L 682.76 1044.28
  L 678.79 1047.45
  L 675.02 1050.07
  L 671.36 1052.18
  L 669.47 1053.03
  L 667.48 1053.69
  L 662.95 1054.56
  L 657.77 1054.84
  L 651.75 1054.51
  L 633.07 1052.59
  L 617.88 1050.83
  L 610.89 1049.81
  L 605.49 1048.71
  L 602.99 1047.74
  L 601.98 1047.04
  L 601.14 1046.21
  L 601.14 1046.21
  L 601.14 1046.21
  L 600.09 1044.52
  L 599.50 1042.45
  L 597.67 1031.95
  L 595.93 1024.09
  L 593.91 1017.19
  L 591.47 1010.79
  L 590.21 1008.03
  L 584.72 997.03
  L 578.19 984.74
  L 578.12 984.64
  L 577.69 984.46
  L 577.27 984.68
  L 574.30 989.09
  L 571.67 993.65
  L 564.08 1008.57
  L 555.16 1027.15
  L 550.96 1035.35
  L 544.62 1046.61
  L 542.82 1049.47
  L 540.90 1052.06
  L 538.52 1054.78
  L 535.80 1057.41
  L 532.61 1060.06
  L 528.76 1062.90
  L 527.61 1063.96
  L 522.09 1070.44
  L 517.92 1074.91
  L 513.69 1079.03
  L 505.63 1087.13
  L 502.73 1090.44
  L 500.14 1093.75
  L 490.11 1107.25
  L 489.97 1107.72
  L 490.17 1108.16
  L 492.44 1110.43
  L 492.88 1111.25
  L 492.81 1112.17
  L 491.19 1116.25
  L 487.19 1126.80
  L 485.96 1130.77
  L 485.12 1134.27
  L 484.67 1137.34
  L 484.63 1139.92
  L 484.99 1142.02
  L 485.80 1143.73
  L 490.26 1150.24
  L 491.51 1152.91
  L 492.90 1157.59
  L 494.51 1162.73
  L 496.40 1166.43
  L 498.91 1170.03
  L 502.08 1173.65
  L 506.83 1178.31
  L 511.17 1182.57
  L 513.27 1185.36
  L 517.69 1191.79
  L 520.69 1195.73
  L 522.06 1197.13
  L 523.34 1198.17
  L 526.91 1200.23
  L 531.06 1201.92
  L 535.87 1203.30
  L 542.70 1204.76
  L 550.06 1206.36
  L 553.00 1207.24
  L 556.15 1208.46
  L 559.51 1209.99
  L 563.08 1211.86
  L 569.10 1215.11
  L 572.25 1216.62
  L 576.47 1218.01
  L 580.64 1218.97
  L 584.76 1219.49
  L 588.82 1219.56
  L 595.25 1219.69
  L 597.59 1220.02
  L 599.28 1220.52
  L 604.48 1222.47
  L 609.66 1223.88
  L 614.81 1224.74
  L 619.95 1225.06
  L 624.30 1225.14
  L 632.65 1225.09
  L 635.63 1224.76
  L 638.36 1224.17
  L 639.53 1223.83
  L 647.04 1221.62
  L 653.46 1220.13
  L 662.92 1218.13
  L 668.12 1216.57
  L 670.34 1215.34
  L 672.16 1213.75
  L 672.16 1213.75
  L 672.55 1213.30
  L 674.10 1211.35
  L 676.47 1208.45
  L 678.37 1206.59
  L 680.22 1205.32
  L 682.12 1204.61
  L 683.39 1204.43
  L 684.77 1204.45
  L 687.68 1205.15
  L 688.40 1205.30
  L 689.14 1205.25
  L 689.83 1204.99
  L 690.42 1204.55
  L 693.71 1200.65
  L 697.46 1194.87
  L 699.73 1191.25
  L 700.78 1189.83
  L 701.93 1188.62
  L 703.19 1187.63
  L 704.54 1186.84
  L 704.54 1186.84
  L 706.39 1186.15
  L 708.39 1185.80
  L 710.26 1185.53
  L 711.38 1185.14
  L 713.11 1183.83
  L 714.58 1182.22
  L 715.86 1180.25
  L 716.97 1177.87
  L 717.89 1175.17
  L 718.65 1172.09
  L 719.90 1163.81
  L 719.97 1163.23
  L 721.90 1148.12
  L 721.81 1145.29
  L 720.88 1141.14
  L 720.01 1136.93
  L 719.87 1132.92
  L 720.06 1129.16
  L 720.57 1125.64
  L 721.41 1122.38
  L 724.35 1112.17
  L 726.30 1103.04
  L 726.74 1099.53
  L 726.93 1095.54
  L 726.87 1091.09
  L 726.56 1086.16
  L 725.84 1074.30
  L 726.02 1065.74
  L 726.20 1055.88
  L 725.99 1048.57
  L 725.62 1037.83
  L 725.65 1024.53
  L 725.64 1021.86
  L 725.43 1017.61
  L 724.87 1011.63
  L 724.55 1008.45
  L 724.32 1008.06
  L 723.86 1007.98
  L 723.78 1008.01
  Z
  M 511.20 1193.57
  L 504.49 1186.72
  L 498.18 1180.90
  L 493.86 1176.31
  L 490.48 1171.85
  L 487.90 1167.24
  L 486.04 1162.37
  L 485.67 1161.96
  L 485.12 1162.00
  L 485.01 1162.08
  L 478.90 1167.40
  L 473.17 1171.88
  L 467.98 1175.51
  L 456.95 1182.56
  L 445.61 1189.29
  L 433.97 1195.69
  L 422.02 1201.76
  L 405.61 1209.70
  L 395.94 1214.18
  L 389.17 1216.85
  L 380.51 1219.74
  L 378.79 1220.41
  L 377.42 1221.24
  L 376.51 1222.19
  L 376.14 1223.16
  L 376.33 1224.41
  L 377.12 1225.65
  L 382.31 1230.01
  L 382.76 1230.59
  L 382.93 1231.30
  L 382.79 1232.00
  L 382.36 1232.56
  L 382.36 1232.56
  L 382.10 1232.73
  L 381.05 1232.91
  L 379.45 1232.64
  L 379.30 1232.63
  L 378.96 1232.84
  L 378.93 1233.25
  L 378.95 1233.30
  L 380.09 1235.22
  L 381.74 1236.99
  L 383.75 1238.43
  L 386.22 1239.63
  L 389.06 1240.53
  L 392.19 1241.09
  L 395.38 1241.26
  L 398.35 1241.04
  L 405.50 1240.19
  L 407.13 1240.14
  L 409.05 1240.32
  L 413.76 1241.39
  L 414.79 1241.55
  L 415.82 1241.45
  L 428.16 1238.28
  L 441.14 1234.26
  L 454.75 1229.39
  L 469.52 1223.49
  L 477.30 1219.92
  L 484.49 1215.95
  L 491.08 1211.59
  L 497.07 1206.82
  L 507.42 1197.06
  L 507.43 1197.05
  L 509.80 1195.39
  L 511.10 1194.58
  L 511.38 1194.12
  L 511.23 1193.60
  L 511.20 1193.57
  Z"
/>
<g>
<path fill="#000000" d="
  M 535.34 1110.47
  L 537.05 1108.91
  L 538.80 1108.11
  L 540.73 1107.78
  L 542.89 1107.86
  L 545.33 1108.38
  L 548.02 1109.34
  L 550.80 1110.70
  L 553.66 1112.45
  L 556.22 1114.38
  L 557.90 1115.89
  L 557.90 1115.89
  L 560.51 1118.75
  L 562.80 1121.94
  L 564.75 1125.48
  L 566.38 1129.36
  L 566.63 1130.84
  L 566.35 1132.32
  L 565.57 1133.60
  L 564.39 1134.53
  L 564.33 1134.56
  L 563.02 1134.95
  L 561.66 1134.80
  L 560.47 1134.14
  L 559.63 1133.08
  L 559.63 1133.08
  L 559.60 1133.02
  L 556.55 1127.01
  L 555.25 1124.95
  L 553.80 1123.07
  L 552.21 1121.37
  L 550.48 1119.84
  L 550.48 1119.84
  L 550.48 1119.84
  L 550.48 1119.84
  L 548.16 1118.22
  L 545.62 1116.87
  L 543.63 1116.16
  L 540.75 1115.48
  L 537.40 1114.65
  L 536.24 1114.08
  L 535.45 1113.28
  L 535.45 1113.28
  L 535.10 1112.48
  L 534.98 1111.54
  L 535.34 1110.47
  Z"
/>
<path fill="#000000" d="
  M 493.92 1131.16
  L 493.67 1131.03
  L 493.56 1130.55
  L 493.93 1130.22
  L 499.74 1129.42
  L 505.47 1129.10
  L 511.13 1129.27
  L 516.71 1129.92
  L 516.71 1129.92
  L 516.71 1129.92
  L 516.71 1129.92
  L 520.74 1130.69
  L 524.73 1131.73
  L 528.67 1133.02
  L 532.58 1134.57
  L 535.30 1135.95
  L 537.67 1137.56
  L 539.67 1139.41
  L 541.31 1141.50
  L 541.31 1141.50
  L 542.24 1143.10
  L 542.51 1144.17
  L 542.29 1144.65
  L 541.88 1144.98
  L 541.38 1145.11
  L 540.86 1145.00
  L 540.86 1145.00
  L 540.64 1144.87
  L 538.39 1143.28
  L 538.39 1143.28
  L 538.39 1143.28
  L 535.09 1141.33
  L 531.57 1139.70
  L 527.85 1138.38
  L 523.92 1137.37
  L 493.92 1131.16
  Z"
/>
<path fill="#000000" d="
  M 603.45 1145.52
  L 603.37 1145.32
  L 603.07 1143.92
  L 603.30 1142.50
  L 604.03 1141.27
  L 605.16 1140.38
  L 609.49 1138.40
  L 613.82 1136.97
  L 618.17 1136.09
  L 622.52 1135.75
  L 622.52 1135.75
  L 622.52 1135.75
  L 626.29 1135.90
  L 630.06 1136.47
  L 633.84 1137.44
  L 637.63 1138.83
  L 640.00 1140.16
  L 642.04 1141.93
  L 643.37 1143.80
  L 643.96 1145.66
  L 643.90 1146.88
  L 643.46 1147.78
  L 642.73 1148.37
  L 641.79 1148.66
  L 640.62 1148.67
  L 639.40 1148.38
  L 634.62 1146.13
  L 632.67 1145.25
  L 630.67 1144.58
  L 628.52 1144.09
  L 626.32 1143.80
  L 623.96 1143.70
  L 621.59 1143.81
  L 616.65 1144.60
  L 614.54 1145.26
  L 611.80 1146.42
  L 608.32 1147.82
  L 606.86 1147.98
  L 605.44 1147.61
  L 604.25 1146.75
  L 603.45 1145.52
  Z"
/>
<path fill="#000000" d="
  M 520.73 1144.85
  L 523.22 1144.60
  L 526.13 1144.59
  L 528.79 1144.82
  L 531.18 1145.27
  L 533.13 1145.92
  L 534.63 1146.71
  L 535.73 1147.69
  L 536.44 1148.89
  L 536.56 1149.28
  L 536.58 1149.45
  L 536.30 1150.10
  L 535.62 1150.29
  L 531.87 1149.48
  L 528.12 1148.41
  L 524.38 1147.06
  L 520.65 1145.44
  L 520.54 1145.35
  L 520.49 1145.04
  L 520.73 1144.85
  Z"
/>
<path fill="#000000" d="
  M 548.66 1163.97
  L 548.92 1163.66
  L 549.33 1163.65
  L 549.39 1163.68
  L 552.82 1165.49
  L 556.63 1166.89
  L 557.88 1167.11
  L 559.17 1167.08
  L 560.60 1166.78
  L 562.02 1166.26
  L 565.22 1164.42
  L 568.28 1161.81
  L 568.50 1161.36
  L 568.40 1160.88
  L 567.09 1158.09
  L 566.30 1155.37
  L 566.17 1153.15
  L 566.65 1151.37
  L 567.27 1150.41
  L 568.03 1149.66
  L 569.27 1148.95
  L 570.68 1148.59
  L 572.30 1148.53
  L 574.20 1148.78
  L 576.33 1149.37
  L 578.58 1150.27
  L 580.93 1151.49
  L 582.98 1152.81
  L 584.59 1154.38
  L 585.08 1155.22
  L 585.36 1156.10
  L 585.36 1156.10
  L 585.43 1157.08
  L 585.26 1158.11
  L 584.77 1159.15
  L 583.88 1160.15
  L 582.59 1161.10
  L 580.90 1162.02
  L 575.13 1164.52
  L 574.47 1164.87
  L 574.16 1165.55
  L 574.12 1166.01
  L 574.12 1166.01
  L 574.24 1168.86
  L 574.97 1171.75
  L 574.99 1171.81
  L 575.52 1172.78
  L 576.26 1173.61
  L 578.83 1175.41
  L 581.50 1177.27
  L 582.35 1178.23
  L 582.88 1179.18
  L 583.25 1180.99
  L 583.13 1181.48
  L 582.78 1181.84
  L 581.02 1182.64
  L 579.53 1182.84
  L 576.93 1182.48
  L 574.61 1181.81
  L 572.59 1180.82
  L 570.85 1179.52
  L 570.85 1179.52
  L 570.85 1179.52
  L 570.85 1179.52
  L 569.58 1178.14
  L 568.53 1176.54
  L 567.69 1174.70
  L 567.06 1172.63
  L 567.03 1172.53
  L 566.67 1172.23
  L 566.21 1172.31
  L 564.51 1173.31
  L 562.82 1173.99
  L 561.06 1174.37
  L 559.34 1174.43
  L 557.72 1174.19
  L 556.17 1173.69
  L 554.62 1172.90
  L 553.18 1171.86
  L 551.86 1170.59
  L 550.70 1169.12
  L 549.70 1167.47
  L 548.89 1165.67
  L 548.63 1164.72
  L 548.66 1163.97
  Z"
/>
<path fill="#000000" d="
  M 516.96 1158.51
  L 516.64 1158.37
  L 516.56 1158.02
  L 516.56 1158.02
  L 516.61 1157.91
  L 517.94 1156.47
  L 519.86 1155.23
  L 522.27 1154.20
  L 524.88 1153.56
  L 527.29 1153.36
  L 529.30 1153.60
  L 530.91 1154.24
  L 532.09 1155.33
  L 532.21 1155.51
  L 532.42 1156.07
  L 532.39 1156.67
  L 532.13 1157.21
  L 531.68 1157.60
  L 531.62 1157.63
  L 530.06 1158.25
  L 528.46 1158.57
  L 528.46 1158.57
  L 527.14 1158.59
  L 522.02 1158.42
  L 516.96 1158.51
  Z"
/>
<path fill="#000000" d="
  M 674.63 1188.00
  L 668.30 1187.36
  L 661.34 1185.89
  L 654.56 1183.71
  L 643.29 1180.08
  L 638.69 1178.85
  L 634.37 1177.91
  L 630.95 1177.41
  L 626.01 1177.01
  L 619.58 1176.41
  L 617.52 1175.92
  L 615.96 1175.15
  L 615.41 1174.58
  L 615.13 1173.85
  L 615.15 1173.08
  L 615.48 1172.38
  L 615.52 1172.32
  L 616.79 1171.17
  L 618.62 1170.23
  L 620.85 1169.61
  L 623.56 1169.26
  L 626.77 1169.18
  L 630.34 1169.38
  L 634.28 1169.86
  L 638.41 1170.61
  L 645.03 1172.26
  L 651.69 1174.40
  L 658.38 1177.03
  L 665.11 1180.15
  L 667.72 1181.59
  L 670.22 1183.26
  L 672.63 1185.16
  L 674.94 1187.29
  L 675.03 1187.43
  L 674.99 1187.82
  L 674.63 1188.00
  Z"
/>
<path fill="#000000" d="
  M 646.00 1193.88
  L 645.99 1193.92
  L 645.68 1194.12
  L 639.34 1192.21
  L 633.23 1189.89
  L 627.37 1187.18
  L 621.75 1184.06
  L 621.75 1184.06
  L 617.31 1181.20
  L 617.16 1181.06
  L 616.99 1180.39
  L 617.42 1179.85
  L 618.41 1179.52
  L 619.55 1179.38
  L 622.39 1179.58
  L 625.95 1180.49
  L 629.34 1181.87
  L 633.63 1184.24
  L 637.77 1186.91
  L 641.77 1189.87
  L 645.62 1193.13
  L 645.99 1193.72
  L 646.00 1193.88
  Z"
/>
<path fill="#000000" d="
  M 651.53 1218.92
  L 651.53 1219.05
  L 651.34 1219.28
  L 651.04 1219.24
  L 628.62 1202.63
  L 617.45 1194.01
  L 611.10 1188.71
  L 610.16 1187.78
  L 610.06 1187.25
  L 610.44 1186.86
  L 610.44 1186.86
  L 610.65 1186.83
  L 613.01 1187.10
  L 615.30 1187.61
  L 617.57 1188.35
  L 619.95 1189.39
  L 622.27 1190.64
  L 624.67 1192.18
  L 629.83 1196.18
  L 635.60 1201.35
  L 641.07 1206.73
  L 646.25 1212.31
  L 651.15 1218.09
  L 651.33 1218.36
  L 651.53 1218.92
  Z"
/>
</g>
</svg>
