<?xml version="1.0" encoding="UTF-8" standalone="no"?>
<svg xmlns="http://www.w3.org/2000/svg" version="1.2" baseProfile="tiny" viewBox="0.00 0.00 1586.00 1983.00">
<path fill="#000000" d="
  M 1102.93 857.84
  L 1102.88 857.94
  L 1102.95 858.21
  L 1103.21 858.31
  L 1106.98 857.93
  L 1110.86 857.75
  L 1114.24 857.79
  L 1117.23 858.06
  L 1119.68 858.52
  L 1121.62 859.17
  L 1123.09 860.01
  L 1124.11 861.10
  L 1124.75 862.64
  L 1124.84 863.73
  L 1124.68 864.87
  L 1124.25 866.07
  L 1123.56 867.32
  L 1120.06 872.76
  L 1112.80 884.15
  L 1107.35 893.28
  L 1103.97 898.79
  L 1100.02 904.51
  L 1099.68 905.17
  L 1099.55 905.89
  L 1099.64 906.63
  L 1099.95 907.30
  L 1103.77 913.41
  L 1107.27 919.65
  L 1110.42 926.02
  L 1113.25 932.51
  L 1118.95 948.52
  L 1119.80 950.10
  L 1120.74 951.04
  L 1121.89 951.74
  L 1123.35 952.32
  L 1125.21 952.79
  L 1133.40 954.84
  L 1141.35 957.52
  L 1141.35 957.52
  L 1141.35 957.52
  L 1146.43 959.62
  L 1151.41 961.99
  L 1156.28 964.64
  L 1161.05 967.55
  L 1163.88 969.29
  L 1167.88 971.86
  L 1170.26 974.03
  L 1171.49 975.95
  L 1171.77 976.92
  L 1171.80 977.84
  L 1171.58 978.80
  L 1171.12 979.69
  L 1169.44 981.44
  L 1166.68 983.18
  L 1162.53 985.07
  L 1161.69 985.43
  L 1156.28 987.64
  L 1151.24 989.46
  L 1146.46 990.94
  L 1141.75 992.15
  L 1126.92 995.39
  L 1125.70 996.00
  L 1124.93 997.13
  L 1121.28 1006.24
  L 1116.95 1015.21
  L 1115.63 1017.50
  L 1114.18 1019.57
  L 1113.98 1020.35
  L 1114.41 1021.02
  L 1114.41 1021.02
  L 1114.45 1021.05
  L 1120.30 1024.86
  L 1125.83 1028.93
  L 1131.05 1033.27
  L 1135.94 1037.86
  L 1136.94 1038.47
  L 1138.10 1038.55
  L 1158.62 1034.99
  L 1167.37 1033.77
  L 1173.77 1032.96
  L 1177.82 1032.63
  L 1183.78 1032.65
  L 1190.74 1032.57
  L 1195.04 1032.02
  L 1199.76 1031.20
  L 1210.43 1028.70
  L 1218.40 1026.85
  L 1226.22 1025.60
  L 1233.88 1024.94
  L 1241.39 1024.88
  L 1244.63 1025.18
  L 1247.35 1025.88
  L 1249.67 1027.01
  L 1251.44 1028.51
  L 1252.48 1029.92
  L 1253.29 1031.62
  L 1253.82 1033.52
  L 1254.09 1035.71
  L 1254.39 1036.78
  L 1255.16 1037.87
  L 1256.33 1039.42
  L 1257.18 1041.21
  L 1257.66 1043.10
  L 1257.79 1045.17
  L 1257.55 1047.27
  L 1256.96 1049.36
  L 1256.04 1051.38
  L 1254.82 1053.25
  L 1253.31 1054.93
  L 1252.89 1055.51
  L 1252.71 1056.20
  L 1252.07 1060.27
  L 1250.73 1064.03
  L 1249.57 1066.14
  L 1248.21 1068.07
  L 1246.55 1069.95
  L 1244.69 1071.67
  L 1242.57 1073.32
  L 1240.12 1074.93
  L 1234.09 1078.14
  L 1229.84 1079.77
  L 1223.69 1081.36
  L 1220.70 1082.07
  L 1212.12 1083.80
  L 1198.73 1085.74
  L 1195.28 1086.21
  L 1173.31 1088.65
  L 1165.61 1089.77
  L 1158.05 1091.43
  L 1155.39 1092.15
  L 1154.81 1092.32
  L 1148.35 1094.59
  L 1139.88 1098.33
  L 1133.50 1101.23
  L 1124.49 1104.91
  L 1115.05 1108.20
  L 1105.19 1111.09
  L 1094.91 1113.58
  L 1083.79 1115.86
  L 1073.34 1117.67
  L 1063.48 1119.04
  L 1053.96 1119.99
  L 1044.73 1120.53
  L 1035.68 1120.66
  L 1026.82 1120.39
  L 1018.06 1119.71
  L 1017.64 1119.67
  L 1010.08 1118.98
  L 1000.07 1118.02
  L 992.67 1116.95
  L 984.97 1115.51
  L 982.94 1115.30
  L 980.91 1115.45
  L 968.00 1117.27
  L 958.63 1118.54
  L 952.00 1119.64
  L 930.53 1123.83
  L 919.74 1126.23
  L 887.40 1135.20
  L 883.74 1136.42
  L 878.60 1138.56
  L 871.97 1141.22
  L 851.92 1147.70
  L 824.16 1156.15
  L 794.43 1165.20
  L 788.18 1166.77
  L 778.92 1168.51
  L 774.86 1169.57
  L 766.39 1172.46
  L 755.13 1176.03
  L 741.62 1180.35
  L 731.86 1183.85
  L 718.04 1188.90
  L 699.99 1195.03
  L 699.48 1195.44
  L 699.37 1196.08
  L 700.74 1202.70
  L 700.74 1202.70
  L 702.40 1209.06
  L 704.39 1215.35
  L 706.70 1221.56
  L 709.33 1227.70
  L 712.80 1234.46
  L 714.56 1237.30
  L 716.44 1239.94
  L 720.53 1244.66
  L 725.74 1249.50
  L 729.62 1252.97
  L 733.36 1256.64
  L 736.95 1260.48
  L 740.41 1264.52
  L 750.09 1276.69
  L 753.56 1281.47
  L 756.58 1286.00
  L 759.29 1290.51
  L 761.66 1294.99
  L 763.69 1299.43
  L 765.42 1303.89
  L 766.85 1308.39
  L 769.83 1319.92
  L 772.27 1331.83
  L 774.16 1344.10
  L 775.52 1356.75
  L 778.39 1393.13
  L 780.46 1425.00
  L 780.71 1431.61
  L 780.67 1437.48
  L 780.34 1442.62
  L 779.72 1447.01
  L 778.81 1450.79
  L 777.57 1454.33
  L 775.99 1457.64
  L 774.08 1460.71
  L 774.08 1460.71
  L 771.09 1464.35
  L 761.50 1473.55
  L 757.50 1476.93
  L 753.33 1479.69
  L 749.00 1481.83
  L 744.51 1483.34
  L 739.57 1484.26
  L 734.43 1484.48
  L 729.12 1484.00
  L 723.62 1482.81
  L 717.71 1480.92
  L 712.01 1478.56
  L 706.53 1475.76
  L 701.32 1472.52
  L 696.43 1468.88
  L 691.86 1464.83
  L 687.71 1460.48
  L 683.94 1455.76
  L 676.71 1445.16
  L 674.53 1441.22
  L 672.76 1436.70
  L 671.50 1431.86
  L 670.74 1426.72
  L 670.30 1420.40
  L 670.15 1413.92
  L 670.29 1407.18
  L 670.70 1400.21
  L 671.41 1392.93
  L 672.40 1385.23
  L 675.43 1367.20
  L 676.21 1361.01
  L 676.41 1353.75
  L 676.05 1326.75
  L 675.62 1308.48
  L 675.24 1303.97
  L 674.39 1298.58
  L 673.08 1292.39
  L 671.41 1285.86
  L 670.05 1281.51
  L 668.39 1277.13
  L 666.48 1272.88
  L 664.25 1268.60
  L 661.75 1264.36
  L 658.94 1260.09
  L 655.76 1255.73
  L 652.23 1251.28
  L 649.38 1248.41
  L 645.60 1245.57
  L 640.89 1242.73
  L 634.92 1239.68
  L 630.29 1237.17
  L 627.00 1234.71
  L 625.56 1233.22
  L 623.97 1231.16
  L 622.67 1228.95
  L 621.59 1226.48
  L 620.78 1223.90
  L 620.20 1221.09
  L 619.86 1218.01
  L 619.77 1214.82
  L 619.92 1211.44
  L 619.78 1211.03
  L 619.39 1210.85
  L 619.37 1210.85
  L 616.03 1210.87
  L 604.42 1211.14
  L 600.07 1211.51
  L 596.13 1212.08
  L 593.58 1212.56
  L 586.02 1214.13
  L 575.39 1216.61
  L 565.99 1218.83
  L 558.33 1221.03
  L 547.73 1224.77
  L 536.97 1228.60
  L 526.97 1231.78
  L 517.30 1234.45
  L 507.74 1236.67
  L 506.32 1236.96
  L 506.32 1236.96
  L 499.20 1238.08
  L 491.98 1238.72
  L 484.67 1238.86
  L 477.26 1238.52
  L 472.85 1237.91
  L 468.79 1236.82
  L 465.08 1235.24
  L 461.73 1233.17
  L 461.73 1233.17
  L 460.45 1232.18
  L 459.69 1231.69
  L 458.84 1231.39
  L 454.74 1230.25
  L 453.25 1229.52
  L 452.09 1228.66
  L 450.78 1227.16
  L 449.69 1225.10
  L 448.45 1221.22
  L 448.01 1218.63
  L 447.84 1215.98
  L 447.72 1214.39
  L 446.99 1211.73
  L 446.52 1210.25
  L 446.28 1208.88
  L 446.34 1207.35
  L 446.69 1205.67
  L 447.34 1203.82
  L 448.07 1202.18
  L 448.07 1202.18
  L 448.07 1202.18
  L 450.13 1198.46
  L 452.66 1194.95
  L 455.65 1191.68
  L 459.12 1188.62
  L 466.48 1182.97
  L 473.29 1178.12
  L 479.19 1174.58
  L 488.69 1169.52
  L 515.87 1155.58
  L 522.43 1152.06
  L 531.42 1146.74
  L 535.69 1144.18
  L 538.84 1142.17
  L 542.11 1139.77
  L 545.50 1136.98
  L 549.01 1133.79
  L 552.29 1130.14
  L 556.10 1124.88
  L 560.62 1118.71
  L 566.13 1112.21
  L 566.57 1111.68
  L 567.73 1109.55
  L 568.33 1106.92
  L 568.32 1103.95
  L 567.73 1100.61
  L 566.53 1096.78
  L 564.78 1092.73
  L 562.47 1088.47
  L 559.93 1084.57
  L 553.56 1076.18
  L 546.86 1068.23
  L 545.55 1066.97
  L 544.03 1065.89
  L 542.28 1064.94
  L 540.21 1064.09
  L 537.93 1063.40
  L 535.41 1062.84
  L 530.12 1062.27
  L 502.57 1061.04
  L 475.02 1059.59
  L 464.94 1059.10
  L 453.83 1058.79
  L 428.51 1058.73
  L 417.95 1058.65
  L 407.59 1058.17
  L 397.45 1057.30
  L 387.51 1056.02
  L 379.07 1054.44
  L 375.67 1053.51
  L 372.56 1052.42
  L 369.72 1051.15
  L 367.18 1049.72
  L 364.85 1048.10
  L 362.66 1046.20
  L 360.09 1043.34
  L 358.18 1041.54
  L 355.46 1040.03
  L 354.04 1039.11
  L 351.82 1037.27
  L 350.13 1035.42
  L 348.97 1033.30
  L 348.54 1031.88
  L 348.35 1030.42
  L 348.37 1028.82
  L 348.58 1027.21
  L 349.64 1023.60
  L 351.70 1019.01
  L 352.61 1016.52
  L 353.43 1013.90
  L 354.54 1011.52
  L 356.48 1008.60
  L 359.05 1005.91
  L 362.15 1003.53
  L 365.88 1001.36
  L 373.42 997.89
  L 377.04 996.54
  L 380.49 995.47
  L 383.85 994.64
  L 387.25 994.04
  L 390.56 993.68
  L 393.93 993.56
  L 398.76 993.80
  L 403.54 994.53
  L 410.61 996.16
  L 418.64 997.98
  L 424.49 998.84
  L 431.29 999.32
  L 438.48 999.56
  L 446.06 999.58
  L 454.03 999.36
  L 461.37 998.86
  L 467.81 997.97
  L 472.74 996.92
  L 477.95 995.50
  L 487.14 992.90
  L 497.34 989.98
  L 504.89 987.43
  L 515.09 983.79
  L 527.10 979.79
  L 533.81 977.44
  L 544.81 973.68
  L 558.06 970.00
  L 570.69 966.89
  L 582.69 964.34
  L 594.07 962.34
  L 604.31 961.16
  L 617.32 960.36
  L 619.06 960.08
  L 625.49 958.39
  L 631.46 957.12
  L 636.96 956.25
  L 642.01 955.79
  L 652.09 955.05
  L 661.73 953.92
  L 701.99 948.06
  L 733.18 943.00
  L 744.24 940.75
  L 755.25 938.53
  L 768.04 936.19
  L 776.27 934.29
  L 781.22 932.72
  L 786.38 930.77
  L 791.93 928.35
  L 798.05 925.40
  L 805.78 921.97
  L 814.45 918.97
  L 820.64 917.61
  L 831.78 915.78
  L 841.60 914.15
  L 851.16 912.25
  L 860.44 910.09
  L 869.46 907.67
  L 876.80 905.33
  L 883.94 902.62
  L 890.86 899.52
  L 897.57 896.05
  L 897.57 896.05
  L 900.74 894.23
  L 904.83 891.64
  L 908.88 888.74
  L 912.53 885.80
  L 915.76 882.83
  L 919.19 879.60
  L 923.04 876.26
  L 932.01 869.26
  L 938.17 865.19
  L 941.12 863.59
  L 944.00 862.28
  L 957.92 857.07
  L 979.49 849.74
  L 982.68 848.46
  L 987.29 846.28
  L 1001.44 838.92
  L 1016.12 830.62
  L 1020.73 828.35
  L 1028.17 825.49
  L 1036.44 822.24
  L 1044.66 818.61
  L 1051.91 815.68
  L 1058.49 813.31
  L 1064.48 811.49
  L 1066.71 811.02
  L 1069.17 810.74
  L 1074.74 810.76
  L 1077.83 811.14
  L 1080.71 811.84
  L 1083.38 812.87
  L 1085.84 814.23
  L 1088.30 816.08
  L 1090.50 818.32
  L 1091.29 819.06
  L 1092.22 819.62
  L 1094.12 820.33
  L 1097.16 821.57
  L 1099.40 823.03
  L 1101.22 824.65
  L 1102.63 826.43
  L 1103.63 828.37
  L 1103.63 828.37
  L 1103.63 828.37
  L 1104.26 830.79
  L 1104.36 833.42
  L 1103.91 836.26
  L 1102.92 839.31
  L 1102.87 839.91
  L 1103.17 840.44
  L 1104.85 842.40
  L 1106.01 844.67
  L 1106.42 846.17
  L 1106.60 847.70
  L 1106.55 849.34
  L 1106.27 850.99
  L 1105.75 852.74
  L 1105.03 854.45
  L 1102.93 857.84
  Z
  M 1040.60 872.19
  L 1056.65 873.89
  L 1057.53 873.95
  L 1060.94 873.73
  L 1064.43 872.81
  L 1068.14 871.21
  L 1073.17 868.42
  L 1076.99 866.26
  L 1079.94 864.79
  L 1081.77 863.99
  L 1086.95 861.95
  L 1089.98 860.79
  L 1090.62 860.42
  L 1091.13 859.88
  L 1094.65 855.41
  L 1097.69 851.51
  L 1098.56 849.91
  L 1099.12 848.37
  L 1099.43 846.77
  L 1099.52 844.99
  L 1099.36 843.12
  L 1098.95 841.01
  L 1098.23 837.64
  L 1097.79 834.47
  L 1097.13 831.22
  L 1096.60 829.99
  L 1095.88 828.94
  L 1094.54 827.70
  L 1092.75 826.71
  L 1087.74 824.40
  L 1084.26 822.46
  L 1081.17 820.70
  L 1078.07 819.43
  L 1074.98 818.66
  L 1071.88 818.38
  L 1068.93 818.58
  L 1065.98 819.22
  L 1058.53 821.63
  L 1051.17 824.46
  L 1031.32 832.91
  L 1031.07 833.16
  L 1031.08 833.51
  L 1031.08 833.51
  L 1031.09 833.52
  L 1034.22 840.53
  L 1034.22 840.53
  L 1034.22 840.53
  L 1036.06 845.86
  L 1037.51 851.35
  L 1038.57 856.98
  L 1039.25 862.76
  L 1039.88 871.42
  L 1040.11 871.94
  L 1040.60 872.19
  Z
  M 1145.87 1050.14
  L 1143.82 1048.52
  L 1142.20 1047.22
  L 1140.81 1046.54
  L 1139.27 1046.27
  L 1137.56 1046.39
  L 1107.26 1051.54
  L 1096.43 1052.88
  L 1074.64 1055.00
  L 1069.31 1055.14
  L 1065.27 1055.11
  L 1060.94 1055.05
  L 1057.50 1054.75
  L 1056.06 1054.52
  L 1046.74 1053.37
  L 1046.65 1053.33
  L 1046.71 1053.05
  L 1058.49 1049.11
  L 1070.58 1044.56
  L 1074.89 1042.73
  L 1079.08 1040.71
  L 1083.14 1038.49
  L 1087.07 1036.08
  L 1087.07 1036.08
  L 1087.07 1036.08
  L 1087.07 1036.08
  L 1091.22 1033.22
  L 1095.22 1030.13
  L 1095.49 1029.57
  L 1095.25 1029.00
  L 1095.15 1028.93
  L 1090.79 1025.85
  L 1085.75 1021.49
  L 1081.16 1016.55
  L 1081.09 1016.20
  L 1081.33 1015.94
  L 1081.33 1015.94
  L 1081.47 1015.92
  L 1083.34 1016.19
  L 1085.23 1016.76
  L 1087.20 1017.62
  L 1089.32 1018.82
  L 1093.67 1022.06
  L 1098.03 1026.30
  L 1098.05 1026.32
  L 1098.77 1026.63
  L 1099.50 1026.33
  L 1102.95 1022.88
  L 1103.19 1022.24
  L 1102.85 1021.65
  L 1102.73 1021.58
  L 1079.47 1010.67
  L 1079.11 1010.38
  L 1078.92 1009.97
  L 1078.94 1009.51
  L 1079.16 1009.11
  L 1079.39 1008.92
  L 1081.11 1008.29
  L 1083.46 1008.12
  L 1086.24 1008.42
  L 1089.50 1009.17
  L 1093.39 1010.42
  L 1097.64 1012.11
  L 1102.28 1014.23
  L 1106.82 1016.58
  L 1107.35 1016.75
  L 1107.91 1016.71
  L 1108.41 1016.46
  L 1108.78 1016.04
  L 1111.46 1011.23
  L 1113.94 1006.29
  L 1116.19 1001.21
  L 1118.24 995.99
  L 1119.03 994.08
  L 1119.84 992.62
  L 1120.76 991.40
  L 1121.85 990.40
  L 1123.43 989.47
  L 1125.38 988.85
  L 1141.98 985.13
  L 1146.64 983.87
  L 1151.56 982.24
  L 1156.85 980.20
  L 1163.13 977.51
  L 1163.38 977.21
  L 1163.29 976.82
  L 1163.29 976.82
  L 1163.19 976.74
  L 1151.94 969.83
  L 1147.34 967.36
  L 1143.17 965.40
  L 1138.71 963.62
  L 1134.15 962.03
  L 1129.49 960.65
  L 1124.73 959.47
  L 1121.31 958.57
  L 1118.67 957.55
  L 1116.57 956.32
  L 1114.97 954.86
  L 1113.77 953.19
  L 1112.85 951.14
  L 1107.20 935.30
  L 1105.08 930.17
  L 1102.21 924.33
  L 1098.59 917.77
  L 1094.23 910.51
  L 1093.00 907.97
  L 1092.66 905.75
  L 1092.86 904.33
  L 1093.37 902.93
  L 1095.56 899.30
  L 1099.54 893.38
  L 1102.31 888.79
  L 1105.88 882.66
  L 1109.58 876.73
  L 1113.40 871.02
  L 1117.35 865.52
  L 1117.43 865.06
  L 1117.11 864.72
  L 1116.97 864.69
  L 1111.91 864.49
  L 1106.84 864.65
  L 1101.88 865.17
  L 1096.97 866.04
  L 1092.25 867.25
  L 1087.63 868.80
  L 1083.24 870.66
  L 1079.00 872.87
  L 1078.22 873.32
  L 1072.06 876.71
  L 1067.50 878.75
  L 1063.15 880.05
  L 1058.85 880.61
  L 1055.53 880.54
  L 1040.67 878.89
  L 1040.63 878.89
  L 1039.70 879.17
  L 1039.26 880.03
  L 1038.86 883.76
  L 1038.21 887.53
  L 1037.42 890.78
  L 1036.46 893.60
  L 1035.39 895.87
  L 1034.22 897.59
  L 1032.93 898.79
  L 1031.46 899.49
  L 1030.89 899.33
  L 1030.73 898.76
  L 1031.85 894.06
  L 1032.73 889.36
  L 1033.39 884.67
  L 1033.82 879.97
  L 1033.82 879.92
  L 1033.72 879.34
  L 1033.41 878.84
  L 1032.92 878.51
  L 1032.34 878.39
  L 1031.51 878.39
  L 1031.46 878.39
  L 1030.90 878.53
  L 1030.44 878.87
  L 1030.15 879.36
  L 1030.08 879.93
  L 1030.09 883.48
  L 1029.64 886.78
  L 1028.82 889.20
  L 1027.63 890.82
  L 1027.27 891.03
  L 1026.72 891.10
  L 1026.19 890.90
  L 1025.82 890.48
  L 1025.69 889.94
  L 1025.69 879.04
  L 1025.69 879.04
  L 1025.34 878.71
  L 1020.97 879.13
  L 1016.52 879.98
  L 1011.96 881.26
  L 1007.33 882.98
  L 1002.60 885.14
  L 997.67 887.76
  L 992.41 890.91
  L 986.26 894.92
  L 985.55 895.23
  L 984.79 895.24
  L 984.11 894.98
  L 983.61 894.46
  L 983.57 894.40
  L 983.37 893.97
  L 983.23 893.16
  L 983.33 892.32
  L 984.21 890.42
  L 986.00 888.24
  L 988.41 886.15
  L 991.52 883.96
  L 996.28 881.00
  L 1001.27 878.39
  L 1006.49 876.11
  L 1011.93 874.16
  L 1014.86 873.37
  L 1018.29 872.74
  L 1022.21 872.26
  L 1026.62 871.93
  L 1027.15 871.79
  L 1027.58 871.45
  L 1028.09 870.69
  L 1028.44 869.78
  L 1028.50 869.66
  L 1028.80 869.54
  L 1029.06 869.72
  L 1029.81 871.19
  L 1030.44 871.73
  L 1031.83 871.99
  L 1033.02 871.77
  L 1033.25 871.66
  L 1033.61 871.28
  L 1033.69 870.76
  L 1032.14 858.88
  L 1031.08 846.86
  L 1030.50 839.40
  L 1029.89 834.28
  L 1029.88 834.21
  L 1029.50 833.73
  L 1028.90 833.69
  L 1024.56 835.36
  L 1020.57 837.21
  L 1017.14 839.08
  L 1003.20 846.92
  L 989.29 854.04
  L 984.74 856.15
  L 981.59 857.37
  L 965.12 862.87
  L 947.39 869.41
  L 942.79 871.65
  L 937.38 875.13
  L 929.48 881.14
  L 922.72 887.16
  L 916.20 892.97
  L 909.12 898.23
  L 901.63 902.84
  L 893.64 906.87
  L 893.52 906.92
  L 882.20 911.83
  L 877.95 913.40
  L 873.91 914.65
  L 860.13 918.24
  L 845.93 921.40
  L 844.57 921.67
  L 837.49 922.93
  L 828.34 924.25
  L 827.26 924.40
  L 822.87 925.14
  L 818.34 926.19
  L 813.60 927.57
  L 808.56 929.30
  L 795.15 935.62
  L 791.09 937.48
  L 784.82 939.91
  L 778.08 941.98
  L 770.55 943.79
  L 761.81 945.46
  L 746.30 948.47
  L 727.00 952.16
  L 694.07 957.33
  L 660.63 962.02
  L 657.67 962.69
  L 652.03 964.34
  L 646.63 965.63
  L 641.46 966.54
  L 636.53 967.09
  L 619.51 968.25
  L 607.03 968.83
  L 603.37 969.07
  L 598.74 969.61
  L 586.56 971.61
  L 570.85 974.67
  L 557.68 977.56
  L 545.78 980.82
  L 529.44 986.02
  L 506.70 993.63
  L 493.71 997.76
  L 476.23 1002.68
  L 469.64 1004.26
  L 464.50 1005.05
  L 453.76 1005.81
  L 442.81 1006.17
  L 431.64 1006.13
  L 420.25 1005.70
  L 419.12 1005.62
  L 414.36 1004.99
  L 407.95 1003.62
  L 401.60 1002.21
  L 396.88 1001.56
  L 391.91 1001.52
  L 386.90 1002.07
  L 381.76 1003.22
  L 376.64 1004.94
  L 371.54 1007.25
  L 366.70 1010.04
  L 362.25 1013.22
  L 361.23 1014.41
  L 360.73 1015.88
  L 360.30 1018.11
  L 359.62 1020.42
  L 357.56 1025.30
  L 356.45 1028.02
  L 356.21 1030.30
  L 356.43 1031.52
  L 356.94 1032.81
  L 357.27 1033.08
  L 357.69 1033.00
  L 357.75 1032.95
  L 359.00 1031.69
  L 359.56 1031.44
  L 360.14 1031.60
  L 362.96 1033.98
  L 364.63 1035.94
  L 366.82 1039.04
  L 367.87 1040.35
  L 369.12 1041.47
  L 372.39 1043.59
  L 376.15 1045.33
  L 380.38 1046.70
  L 385.09 1047.68
  L 394.32 1048.99
  L 403.54 1049.95
  L 412.77 1050.57
  L 422.00 1050.84
  L 436.76 1050.88
  L 456.80 1051.00
  L 471.64 1051.55
  L 498.81 1052.97
  L 530.73 1054.27
  L 534.24 1054.55
  L 537.59 1055.12
  L 540.91 1055.99
  L 543.96 1057.11
  L 546.83 1058.51
  L 549.37 1060.11
  L 551.66 1061.95
  L 553.74 1064.08
  L 560.96 1072.85
  L 566.77 1080.71
  L 569.28 1084.87
  L 571.47 1089.60
  L 573.31 1094.89
  L 574.83 1100.74
  L 575.13 1103.00
  L 575.10 1105.46
  L 574.72 1108.13
  L 574.00 1111.01
  L 573.32 1112.67
  L 572.22 1114.57
  L 568.72 1119.04
  L 564.99 1123.81
  L 561.08 1129.87
  L 557.80 1134.84
  L 554.22 1139.22
  L 551.04 1142.44
  L 547.55 1145.44
  L 543.61 1148.35
  L 539.05 1151.30
  L 524.46 1159.96
  L 492.70 1176.28
  L 483.21 1181.32
  L 477.60 1184.68
  L 470.68 1189.66
  L 463.74 1195.00
  L 460.34 1198.08
  L 457.84 1201.16
  L 457.57 1202.21
  L 457.57 1204.70
  L 457.22 1207.46
  L 456.52 1210.52
  L 455.49 1213.74
  L 455.37 1214.08
  L 454.94 1216.07
  L 454.87 1218.28
  L 455.19 1220.75
  L 455.91 1223.59
  L 455.95 1223.68
  L 456.23 1223.85
  L 456.54 1223.74
  L 457.67 1222.99
  L 458.76 1222.88
  L 460.01 1223.24
  L 462.79 1224.64
  L 465.18 1226.18
  L 468.59 1228.28
  L 470.78 1229.23
  L 473.08 1229.96
  L 475.49 1230.47
  L 478.01 1230.76
  L 483.33 1231.00
  L 488.62 1230.99
  L 493.88 1230.72
  L 499.11 1230.20
  L 499.11 1230.20
  L 505.48 1229.20
  L 511.80 1227.82
  L 519.63 1225.76
  L 527.00 1223.63
  L 533.92 1221.41
  L 540.37 1219.11
  L 553.74 1214.33
  L 563.44 1211.42
  L 589.44 1205.43
  L 595.83 1204.22
  L 600.22 1203.68
  L 604.89 1203.33
  L 617.93 1203.04
  L 620.04 1203.02
  L 625.62 1202.86
  L 631.32 1202.49
  L 643.30 1201.10
  L 656.33 1198.80
  L 672.56 1195.23
  L 683.89 1192.14
  L 697.74 1187.54
  L 740.49 1172.22
  L 750.40 1169.14
  L 759.15 1166.51
  L 796.68 1154.16
  L 798.83 1153.60
  L 801.22 1153.20
  L 809.65 1151.89
  L 815.64 1150.43
  L 822.86 1148.04
  L 833.75 1144.56
  L 838.07 1143.39
  L 849.99 1140.02
  L 855.29 1138.23
  L 861.58 1135.70
  L 868.32 1133.03
  L 875.76 1130.47
  L 884.22 1127.89
  L 895.82 1124.64
  L 904.28 1122.30
  L 917.65 1118.72
  L 929.22 1116.06
  L 943.54 1113.23
  L 955.49 1111.15
  L 966.50 1109.60
  L 976.70 1108.55
  L 981.09 1108.32
  L 985.32 1108.35
  L 989.39 1108.65
  L 993.30 1109.22
  L 998.50 1110.08
  L 1007.15 1111.14
  L 1020.05 1112.23
  L 1028.01 1112.86
  L 1039.98 1113.53
  L 1045.05 1113.55
  L 1049.51 1113.36
  L 1066.13 1111.83
  L 1073.95 1110.82
  L 1081.55 1109.62
  L 1088.96 1108.24
  L 1096.15 1106.68
  L 1103.10 1104.94
  L 1109.83 1103.02
  L 1116.64 1100.76
  L 1124.10 1097.89
  L 1132.18 1094.43
  L 1142.71 1089.62
  L 1144.70 1088.70
  L 1152.28 1085.61
  L 1159.29 1083.49
  L 1166.82 1081.86
  L 1175.41 1080.59
  L 1187.86 1079.26
  L 1194.42 1078.60
  L 1206.06 1076.96
  L 1221.93 1074.01
  L 1229.03 1072.25
  L 1231.76 1071.27
  L 1233.94 1070.23
  L 1238.17 1067.67
  L 1241.60 1065.14
  L 1244.40 1062.51
  L 1246.72 1059.66
  L 1247.15 1059.03
  L 1247.20 1058.91
  L 1247.10 1058.62
  L 1246.80 1058.54
  L 1243.36 1059.34
  L 1242.91 1059.22
  L 1242.76 1058.78
  L 1242.83 1058.60
  L 1246.25 1053.87
  L 1247.96 1051.97
  L 1249.68 1050.38
  L 1251.06 1049.12
  L 1252.14 1047.88
  L 1252.86 1046.71
  L 1253.31 1045.48
  L 1253.45 1043.58
  L 1253.02 1041.40
  L 1252.60 1040.92
  L 1250.30 1039.84
  L 1249.80 1039.23
  L 1249.23 1035.26
  L 1248.93 1034.06
  L 1247.87 1032.56
  L 1246.09 1031.39
  L 1243.53 1030.57
  L 1240.55 1030.20
  L 1232.68 1030.19
  L 1225.09 1030.82
  L 1217.76 1032.06
  L 1210.70 1033.94
  L 1199.16 1037.32
  L 1195.03 1038.28
  L 1192.00 1038.75
  L 1172.43 1040.81
  L 1164.77 1041.83
  L 1158.52 1042.85
  L 1144.21 1045.24
  L 1143.76 1045.55
  L 1143.72 1046.10
  L 1143.80 1046.23
  L 1146.28 1049.85
  L 1146.22 1050.10
  L 1145.98 1050.18
  L 1145.87 1050.14
  Z
  M 1083.63 1046.33
  L 1100.02 1044.60
  L 1107.63 1043.63
  L 1129.74 1039.83
  L 1129.87 1039.78
  L 1130.03 1039.49
  L 1129.87 1039.20
  L 1110.49 1026.30
  L 1109.60 1026.08
  L 1108.76 1026.47
  L 1103.97 1031.26
  L 1103.76 1031.59
  L 1103.73 1032.09
  L 1103.97 1032.54
  L 1107.29 1035.85
  L 1107.43 1036.15
  L 1107.19 1036.61
  L 1106.67 1036.60
  L 1102.71 1033.96
  L 1101.72 1033.70
  L 1100.78 1034.11
  L 1097.23 1037.10
  L 1093.17 1040.07
  L 1088.60 1043.03
  L 1083.52 1045.97
  L 1083.42 1046.14
  L 1083.52 1046.31
  L 1083.63 1046.33
  Z
  M 626.08 1210.69
  L 625.43 1210.94
  L 625.15 1211.58
  L 625.15 1211.58
  L 625.15 1211.60
  L 625.56 1216.69
  L 626.61 1221.39
  L 627.40 1223.48
  L 628.41 1225.31
  L 630.33 1227.70
  L 632.82 1229.81
  L 635.92 1231.74
  L 640.64 1234.09
  L 643.18 1235.31
  L 647.64 1237.78
  L 651.68 1240.58
  L 655.31 1243.73
  L 658.53 1247.21
  L 659.85 1248.90
  L 663.78 1254.36
  L 667.00 1259.21
  L 669.76 1263.84
  L 672.12 1268.34
  L 674.07 1272.73
  L 675.64 1277.06
  L 676.79 1281.27
  L 677.56 1285.39
  L 678.86 1296.61
  L 679.12 1301.07
  L 679.14 1304.77
  L 678.67 1329.87
  L 678.76 1341.47
  L 679.05 1352.44
  L 679.06 1352.84
  L 679.09 1357.30
  L 678.91 1361.90
  L 677.77 1373.72
  L 677.35 1377.51
  L 676.39 1388.92
  L 676.03 1400.10
  L 676.28 1411.04
  L 677.12 1421.74
  L 677.89 1426.76
  L 679.07 1431.42
  L 680.67 1435.72
  L 682.67 1439.66
  L 687.44 1447.18
  L 692.35 1453.67
  L 695.43 1457.13
  L 698.68 1460.33
  L 702.12 1463.27
  L 705.73 1465.94
  L 710.09 1468.68
  L 714.69 1471.08
  L 719.52 1473.14
  L 724.59 1474.85
  L 729.79 1476.06
  L 734.76 1476.53
  L 739.49 1476.25
  L 743.98 1475.23
  L 743.98 1475.23
  L 746.33 1474.37
  L 748.60 1473.29
  L 750.80 1471.98
  L 752.94 1470.46
  L 760.33 1463.85
  L 764.46 1459.84
  L 767.60 1456.19
  L 770.00 1452.64
  L 771.80 1448.96
  L 773.11 1444.77
  L 773.80 1440.28
  L 774.22 1432.60
  L 774.15 1425.01
  L 773.09 1407.77
  L 771.43 1391.99
  L 770.02 1380.37
  L 768.01 1360.36
  L 767.50 1355.00
  L 766.34 1344.92
  L 764.83 1335.03
  L 762.94 1325.33
  L 760.70 1315.82
  L 758.05 1306.85
  L 756.66 1303.08
  L 755.21 1299.79
  L 751.81 1293.43
  L 747.66 1286.94
  L 742.59 1280.02
  L 735.29 1270.87
  L 734.99 1270.50
  L 731.41 1266.35
  L 727.33 1262.06
  L 722.59 1257.45
  L 716.19 1251.57
  L 713.25 1248.68
  L 710.57 1245.59
  L 708.17 1242.32
  L 706.09 1238.89
  L 704.07 1235.06
  L 704.07 1235.06
  L 700.50 1227.41
  L 697.41 1219.52
  L 694.80 1211.39
  L 692.67 1203.02
  L 692.17 1198.75
  L 691.96 1198.32
  L 691.50 1198.19
  L 691.50 1198.19
  L 691.43 1198.21
  L 678.57 1201.80
  L 665.60 1204.88
  L 665.60 1204.88
  L 657.42 1206.55
  L 649.19 1208.02
  L 640.92 1209.30
  L 632.61 1210.37
  L 629.22 1210.66
  L 626.08 1210.69
  Z"
/>
<g>
<path fill="#000000" d="
  M 1057.38 925.36
  L 1057.23 925.50
  L 1056.52 925.91
  L 1055.71 925.98
  L 1054.93 925.72
  L 1054.32 925.17
  L 1053.66 923.73
  L 1053.28 921.67
  L 1053.16 919.01
  L 1053.29 915.49
  L 1053.36 913.47
  L 1053.22 912.46
  L 1052.59 910.56
  L 1051.45 908.66
  L 1049.75 906.67
  L 1047.09 904.14
  L 1046.39 903.23
  L 1046.05 902.16
  L 1046.14 901.10
  L 1046.63 900.19
  L 1047.07 899.78
  L 1048.24 899.28
  L 1049.79 899.28
  L 1051.42 899.78
  L 1053.01 900.72
  L 1055.06 902.50
  L 1056.77 904.42
  L 1058.14 906.46
  L 1059.17 908.63
  L 1059.17 908.63
  L 1059.17 908.63
  L 1059.78 910.60
  L 1060.14 912.66
  L 1060.26 914.82
  L 1060.12 917.08
  L 1059.70 919.94
  L 1059.13 922.20
  L 1058.35 923.99
  L 1057.38 925.36
  Z"
/>
<path fill="#000000" d="
  M 1034.75 949.64
  L 1034.75 949.63
  L 1034.76 949.20
  L 1034.45 948.88
  L 1031.81 947.43
  L 1029.78 945.75
  L 1028.02 943.67
  L 1027.71 943.24
  L 1026.21 941.07
  L 1025.32 939.45
  L 1024.79 937.91
  L 1024.66 936.50
  L 1024.97 934.91
  L 1025.81 933.21
  L 1025.92 933.06
  L 1026.39 932.70
  L 1026.97 932.57
  L 1027.55 932.68
  L 1028.03 933.03
  L 1031.15 936.70
  L 1034.33 940.87
  L 1035.37 941.85
  L 1036.80 942.59
  L 1038.40 942.98
  L 1039.76 942.92
  L 1040.52 942.76
  L 1042.61 942.29
  L 1044.04 941.78
  L 1045.18 941.08
  L 1045.91 940.26
  L 1046.14 939.83
  L 1046.89 938.42
  L 1047.73 937.37
  L 1048.70 936.61
  L 1049.73 936.19
  L 1051.33 936.16
  L 1052.92 936.74
  L 1054.56 937.91
  L 1056.00 939.52
  L 1057.16 941.44
  L 1057.89 943.48
  L 1058.09 945.32
  L 1057.74 946.98
  L 1057.16 948.00
  L 1056.41 948.82
  L 1056.41 948.82
  L 1054.74 949.73
  L 1052.56 950.06
  L 1051.86 949.92
  L 1048.00 948.25
  L 1047.25 948.10
  L 1046.50 948.25
  L 1043.62 949.79
  L 1041.55 951.57
  L 1040.96 952.42
  L 1040.49 953.57
  L 1039.96 956.73
  L 1039.40 959.99
  L 1038.89 961.16
  L 1038.25 962.04
  L 1037.97 962.31
  L 1037.25 962.70
  L 1036.46 962.71
  L 1035.57 962.35
  L 1035.23 962.12
  L 1034.40 961.28
  L 1033.81 960.22
  L 1033.42 958.85
  L 1033.25 957.34
  L 1033.30 955.49
  L 1033.59 953.45
  L 1034.09 951.45
  L 1034.75 949.64
  Z"
/>
<path fill="#000000" d="
  M 1090.57 981.64
  L 1090.43 981.76
  L 1089.70 982.14
  L 1088.86 982.19
  L 1088.08 981.90
  L 1087.48 981.32
  L 1086.40 979.50
  L 1085.96 978.32
  L 1083.97 969.78
  L 1083.47 968.57
  L 1082.03 966.47
  L 1080.53 964.82
  L 1077.93 962.82
  L 1073.63 960.47
  L 1071.73 959.48
  L 1071.16 959.02
  L 1070.82 958.36
  L 1070.63 956.82
  L 1071.05 955.56
  L 1072.09 954.72
  L 1073.78 954.35
  L 1075.84 954.51
  L 1077.91 955.15
  L 1081.32 956.94
  L 1084.25 959.02
  L 1086.71 961.40
  L 1088.70 964.07
  L 1088.70 964.07
  L 1090.28 967.22
  L 1091.33 970.70
  L 1091.85 974.52
  L 1091.84 978.66
  L 1091.60 979.94
  L 1091.08 981.03
  L 1091.08 981.03
  L 1090.57 981.64
  Z"
/>
</g>
</svg>
